# This file uses centimeters as units for non-parametric coordinates.

mtllib SM_Bookshelf.mtl
g default
v 59.691240 0.000003 -91.891029
v 59.691240 163.548525 -91.891029
v 59.691236 112.528876 -91.891029
v 59.691236 53.005949 -91.891029
v 59.691233 109.508877 -91.891029
v 59.691236 49.318727 -91.891029
v 59.691236 160.382924 -91.891029
v -55.830984 161.445655 -86.415557
v 55.830984 161.445655 -86.415557
v 55.830984 209.077063 -86.415557
v -55.830984 209.077063 -86.415557
v -55.830984 112.108292 -86.415557
v 55.830984 112.108292 -86.415557
v 55.830984 158.384399 -86.415557
v -55.830984 158.384399 -86.415557
v -55.830984 54.548069 -86.415557
v 55.830984 54.548069 -86.415557
v 55.830984 109.187860 -86.415557
v -55.830984 109.187860 -86.415557
v -55.830984 3.504809 -86.415557
v 55.830984 3.504809 -86.415557
v 55.830984 50.997401 -86.415557
v -55.830984 50.997401 -86.415557
v -59.691240 0.000003 -31.382768
v -59.545232 0.146009 -31.236762
v 59.691240 0.000003 -31.382768
v 59.545232 0.146009 -31.236762
v -59.545232 212.435857 -31.236762
v -59.545232 212.581863 -31.382768
v -59.691240 212.435857 -31.382768
v 59.691240 212.435857 -31.382768
v 59.545232 212.581863 -31.382768
v 59.545232 212.435857 -31.236762
v -59.551679 49.379439 -31.236762
v -59.691236 49.318752 -31.388943
v 59.551679 49.379439 -31.236762
v 59.691236 49.318752 -31.388943
v -59.691240 212.435857 -91.745023
v -59.545232 212.581863 -91.891029
v 59.691240 212.435857 -91.891029
v 59.545232 212.581863 -91.891029
v -59.545232 163.548525 -91.891029
v -59.691240 163.548525 -91.745023
v -55.976992 3.358809 -31.236762
v -55.830984 3.504809 -31.382768
v 55.976992 3.358809 -31.236762
v 55.830984 3.504809 -31.382768
v 55.976992 51.143408 -31.236762
v 55.830984 50.997401 -31.382768
v 55.976992 209.223070 -31.236762
v 55.830984 209.077063 -31.382768
v -55.976992 209.223070 -31.236762
v -55.830984 209.077063 -31.382768
v -55.976992 51.143408 -31.236762
v -55.830984 50.997401 -31.382768
v -59.554991 163.474312 -31.236762
v -59.691240 163.548525 -31.391915
v -55.976992 161.299636 -31.236762
v -55.830984 161.445655 -31.382768
v 55.976992 161.299636 -31.236762
v 55.830984 161.445655 -31.382768
v 59.691240 163.548525 -31.391915
v 59.554991 163.474312 -31.236762
v -59.691236 160.382924 -91.745023
v -59.545228 160.382924 -91.891029
v -59.545666 112.513025 -31.236762
v -59.691236 112.528876 -31.383198
v -59.554137 160.311929 -31.236762
v -59.691240 160.382912 -31.391156
v -55.976992 111.962286 -31.236762
v -55.830984 112.108292 -31.382768
v -55.976992 158.530431 -31.236762
v -55.830984 158.384399 -31.382768
v 55.976992 111.962286 -31.236762
v 55.830984 112.108292 -31.382768
v 55.976992 158.530431 -31.236762
v 55.830984 158.384399 -31.382768
v 59.691236 112.528876 -31.383198
v 59.545666 112.513025 -31.236762
v 59.691240 160.382912 -31.391156
v 59.554137 160.311929 -31.236762
v -59.545228 112.528876 -91.891029
v -59.691236 112.528876 -91.745023
v -59.691233 109.508877 -91.745023
v -59.545225 109.508877 -91.891029
v -59.550725 53.062081 -31.236762
v -59.691236 53.005949 -31.388068
v -59.545481 109.496751 -31.236762
v -59.691236 109.508864 -31.383021
v -55.976992 54.402063 -31.236762
v -55.830984 54.548069 -31.382768
v -55.976992 109.333867 -31.236762
v -55.830984 109.187860 -31.382768
v 55.976992 54.402063 -31.236762
v 55.830984 54.548069 -31.382768
v 55.976992 109.333867 -31.236762
v 55.830984 109.187860 -31.382768
v 59.691236 53.005949 -31.388068
v 59.550725 53.062081 -31.236762
v 59.691236 109.508864 -31.383021
v 59.545481 109.496751 -31.236762
v -59.545228 53.005949 -91.891029
v -59.691236 53.005949 -91.745023
v -59.545228 49.318727 -91.891029
v -59.691236 49.318727 -91.745023
v -59.545232 0.000003 -91.891029
v -59.691240 0.000003 -91.745023
vt 0.133714 0.015542
vt 0.134061 0.015717
vt 0.133688 0.071881
vt 0.133331 0.071804
vt 0.133662 0.076080
vt 0.133306 0.076008
vt 0.004655 0.069342
vt 0.005037 0.013025
vt 0.133260 0.140378
vt 0.132911 0.140384
vt 0.004625 0.073554
vt 0.004306 0.069333
vt 0.004688 0.013017
vt 0.133239 0.143811
vt 0.132890 0.143821
vt 0.004169 0.138156
vt 0.004277 0.073546
vt 0.132913 0.198175
vt 0.132551 0.198247
vt 0.004143 0.141612
vt 0.003820 0.138148
vt 0.132892 0.201767
vt 0.132530 0.201843
vt 0.003735 0.196421
vt 0.003795 0.141604
vt 0.132600 0.257316
vt 0.132251 0.257308
vt 0.003707 0.200051
vt 0.003386 0.196413
vt 0.003258 0.256180
vt 0.003358 0.200043
vt 0.002908 0.256339
vt 0.135599 0.739282
vt 0.135252 0.739462
vt 0.134591 0.683263
vt 0.134947 0.683180
vt 0.006448 0.744327
vt 0.005835 0.687964
vt 0.134544 0.679064
vt 0.134899 0.678985
vt 0.005790 0.683748
vt 0.133799 0.614734
vt 0.134149 0.614734
vt 0.005101 0.619117
vt 0.133758 0.611299
vt 0.134108 0.611303
vt 0.005064 0.615660
vt 0.133084 0.556901
vt 0.133445 0.556967
vt 0.004499 0.560838
vt 0.133038 0.553307
vt 0.133401 0.553377
vt 0.004462 0.557207
vt 0.132356 0.497864
vt 0.132705 0.497850
vt 0.003913 0.501069
vt 0.881505 0.399015
vt 0.881500 0.398522
vt 0.922896 0.395492
vt 0.923007 0.395869
vt 0.887209 0.225747
vt 0.927596 0.231403
vt 0.720944 0.395065
vt 0.720837 0.395731
vt 0.685643 0.391619
vt 0.685398 0.391356
vt 0.669652 0.239283
vt 0.711259 0.229996
vt 0.473347 0.504379
vt 0.473734 0.504155
vt 0.483595 0.552823
vt 0.483229 0.553162
vt 0.611157 0.494977
vt 0.617091 0.540545
vt 0.463308 0.285812
vt 0.462902 0.285659
vt 0.467517 0.232577
vt 0.467923 0.232594
vt 0.611390 0.266106
vt 0.608572 0.307774
vt 0.412011 0.954995
vt 0.412018 0.954380
vt 0.462443 0.951856
vt 0.462570 0.952327
vt 0.424036 0.738924
vt 0.473025 0.746950
vt 0.211523 0.945437
vt 0.211366 0.946268
vt 0.168635 0.940243
vt 0.168327 0.939913
vt 0.153426 0.749293
vt 0.204273 0.739158
vt 0.382774 0.440337
vt 0.382796 0.439805
vt 0.435586 0.439153
vt 0.435754 0.439621
vt 0.391399 0.252867
vt 0.442017 0.261504
vt 0.205306 0.433024
vt 0.205238 0.433516
vt 0.156103 0.438290
vt 0.156166 0.437739
vt 0.144526 0.265408
vt 0.197217 0.254269
vt 0.138306 0.981670
vt 0.137986 0.981979
vt 0.135578 0.739746
vt 0.009460 0.986983
vt 0.009146 0.986699
vt 0.132246 0.257646
vt 0.132569 0.257632
vt 0.132672 0.497539
vt 0.132348 0.497527
vt 0.003910 0.500726
vt 0.002943 0.256520
vt 0.881610 0.398959
vt 0.720975 0.395479
vt 0.711288 0.018434
vt 0.711122 0.017973
vt 0.880825 0.018817
vt 0.880679 0.019273
vt 0.886240 0.184274
vt 0.711160 0.188832
vt 0.501687 0.032291
vt 0.502019 0.032741
vt 0.643622 0.079751
vt 0.412143 0.954929
vt 0.211550 0.945956
vt 0.422086 0.481740
vt 0.421890 0.482305
vt 0.210430 0.476348
vt 0.210236 0.475768
vt 0.424031 0.688451
vt 0.205310 0.689079
vt 0.382884 0.440313
vt 0.205248 0.433483
vt 0.388612 0.021567
vt 0.388426 0.022061
vt 0.203448 0.017262
vt 0.203279 0.016758
vt 0.390061 0.201404
vt 0.198408 0.202424
vt 0.644002 0.308083
vt 0.646684 0.496641
vt 0.705108 0.438430
vt 0.887872 0.438430
vt 0.888096 0.438556
vt 0.705108 0.480689
vt 0.888096 0.480689
vt 0.888096 0.483417
vt 0.705108 0.483417
vt 0.888096 0.524660
vt 0.705108 0.524660
vt 0.888096 0.527263
vt 0.705108 0.527263
vt 0.888096 0.575959
vt 0.705108 0.575960
vt 0.888096 0.579137
vt 0.705108 0.579137
vt 0.888096 0.621642
vt 0.705108 0.621642
vt 0.663857 0.659961
vt 0.991749 0.659958
vt 0.981925 0.664926
vt 0.673681 0.664928
vt 0.991767 0.736084
vt 0.981925 0.738811
vt 0.673682 0.738813
vt 0.663840 0.736086
vt 0.991765 0.741778
vt 0.981925 0.743850
vt 0.673682 0.743852
vt 0.663842 0.741780
vt 0.991751 0.829038
vt 0.981926 0.828786
vt 0.673683 0.828788
vt 0.663858 0.829040
vt 0.991752 0.833701
vt 0.981926 0.832850
vt 0.673683 0.832852
vt 0.663857 0.833704
vt 0.991775 0.907608
vt 0.981927 0.904854
vt 0.673683 0.904856
vt 0.663834 0.907611
vt 0.991778 0.912498
vt 0.981927 0.909136
vt 0.673683 0.909138
vt 0.663832 0.912501
vt 0.991752 0.988203
vt 0.981927 0.983235
vt 0.663859 0.988205
vt 0.673684 0.983238
vn 0.000000 0.000000 1.000000
vn 0.000000 0.000000 1.000000
vn 0.000000 0.000000 1.000000
vn 0.000000 0.000000 1.000000
vn 0.000000 0.000000 1.000000
vn 0.000000 0.000000 1.000000
vn 0.000000 0.000000 1.000000
vn 0.000000 0.000000 1.000000
vn 0.000000 0.000000 1.000000
vn 0.000000 0.000000 1.000000
vn 0.000000 0.000000 1.000000
vn 0.000000 0.000000 1.000000
vn 0.000000 0.000000 1.000000
vn 0.000000 0.000000 1.000000
vn 0.000000 0.000000 1.000000
vn 0.000000 0.000000 1.000000
vn -0.722225 -0.000004 0.691658
vn -0.722225 -0.000004 0.691658
vn -0.723230 -0.000002 0.690608
vn -0.723012 -0.000003 0.690835
vn 0.000000 -0.707104 0.707109
vn 0.000000 -0.707104 0.707109
vn 0.000000 -0.707104 0.707109
vn 0.000000 -0.707104 0.707109
vn 0.722225 -0.000004 0.691658
vn 0.722225 -0.000004 0.691658
vn 0.723012 -0.000003 0.690835
vn 0.723230 -0.000002 0.690608
vn -0.729635 0.000009 0.683837
vn -0.729635 0.000009 0.683837
vn -0.730694 0.000007 0.682705
vn -0.731061 0.000007 0.682312
vn 0.000000 0.707101 0.707112
vn 0.000000 0.707101 0.707112
vn 0.000000 0.707101 0.707112
vn 0.000000 0.707101 0.707112
vn -0.707101 0.707112 0.000000
vn -0.707101 0.707112 0.000000
vn -0.707101 0.707112 0.000000
vn -0.707101 0.707112 0.000000
vn 0.729635 0.000009 0.683837
vn 0.729635 0.000009 0.683837
vn 0.731061 0.000007 0.682312
vn 0.730694 0.000007 0.682705
vn 0.707105 0.707109 0.000000
vn 0.707105 0.707109 0.000000
vn 0.707105 0.707109 0.000000
vn 0.707105 0.707109 0.000000
vn -0.721441 0.000003 0.692475
vn -0.721644 0.000003 0.692265
vn 0.721644 0.000003 0.692265
vn 0.721441 0.000003 0.692475
vn -0.707106 0.000000 -0.707107
vn -0.707106 0.000000 -0.707107
vn -0.707106 -0.000000 -0.707108
vn -0.707106 -0.000000 -0.707108
vn -0.707103 -0.000000 -0.707111
vn -0.707103 -0.000000 -0.707111
vn 0.707105 0.000000 0.707108
vn 0.707105 0.000000 0.707108
vn 0.707105 0.000000 0.707108
vn 0.707105 0.000000 0.707108
vn 0.000000 0.707136 0.707077
vn 0.000000 0.707136 0.707077
vn 0.000000 0.707136 0.707077
vn 0.000000 0.707136 0.707077
vn -0.707105 0.000000 0.707108
vn -0.707105 0.000000 0.707108
vn -0.707105 0.000000 0.707108
vn -0.707105 0.000000 0.707108
vn 0.000000 -0.707112 0.707102
vn 0.000000 -0.707112 0.707102
vn 0.000000 -0.707112 0.707102
vn 0.000000 -0.707112 0.707102
vn -0.707105 0.000000 0.707108
vn -0.707105 0.000000 0.707108
vn -0.707105 0.000000 0.707108
vn -0.707105 0.000000 0.707108
vn 0.000000 -0.707120 0.707094
vn 0.000000 -0.707120 0.707094
vn 0.000000 -0.707120 0.707094
vn 0.000000 -0.707120 0.707094
vn 0.707105 0.000000 0.707108
vn 0.707105 0.000000 0.707108
vn 0.707105 0.000000 0.707108
vn 0.707105 0.000000 0.707108
vn -0.730271 -0.000009 0.683157
vn -0.729896 -0.000008 0.683559
vn 0.000000 0.707071 0.707143
vn 0.000000 0.707071 0.707143
vn 0.000000 0.707071 0.707143
vn 0.000000 0.707071 0.707143
vn 0.729896 -0.000008 0.683559
vn 0.730271 -0.000009 0.683157
vn -0.707103 0.000000 -0.707110
vn -0.707103 0.000000 -0.707110
vn -0.727549 -0.000007 0.686056
vn -0.727627 -0.000007 0.685973
vn -0.720042 0.000002 0.693930
vn -0.720073 0.000002 0.693899
vn 0.707105 0.000000 0.707109
vn 0.707105 0.000000 0.707109
vn 0.707105 0.000000 0.707109
vn 0.707105 0.000000 0.707109
vn 0.000000 0.707107 0.707107
vn 0.000000 0.707107 0.707107
vn 0.000000 0.707107 0.707107
vn 0.000000 0.707107 0.707107
vn 0.000000 -0.707046 0.707167
vn 0.000000 -0.707046 0.707167
vn 0.000000 -0.707046 0.707167
vn 0.000000 -0.707046 0.707167
vn -0.707105 0.000000 0.707109
vn -0.707105 0.000000 0.707109
vn -0.707105 0.000000 0.707109
vn -0.707105 0.000000 0.707109
vn 0.727627 -0.000007 0.685973
vn 0.727549 -0.000007 0.686056
vn 0.720073 0.000002 0.693899
vn 0.720042 0.000002 0.693930
vn -0.707108 0.000000 -0.707106
vn -0.707108 0.000000 -0.707106
vn -0.707108 0.000000 -0.707106
vn -0.707108 0.000000 -0.707106
vn 0.707098 0.000000 0.707115
vn 0.707098 0.000000 0.707115
vn 0.707098 0.000000 0.707115
vn 0.707098 0.000000 0.707115
vn 0.000000 0.707112 0.707102
vn 0.000000 0.707112 0.707102
vn 0.000000 0.707112 0.707102
vn 0.000000 0.707112 0.707102
vn 0.000000 -0.707108 0.707106
vn 0.000000 -0.707108 0.707106
vn 0.000000 -0.707108 0.707106
vn 0.000000 -0.707108 0.707106
vn -0.707098 0.000000 0.707115
vn -0.707098 0.000000 0.707115
vn -0.707098 0.000000 0.707115
vn -0.707098 0.000000 0.707115
vn -0.707103 0.000000 -0.707111
vn -0.707103 0.000000 -0.707111
vn -0.707103 0.000000 -0.707111
vn -0.707103 0.000000 -0.707111
vn 0.000000 1.000000 0.000000
vn 0.000000 1.000000 0.000000
vn 0.000000 1.000000 0.000000
vn 0.000000 1.000000 0.000000
vn 0.000000 0.000000 -1.000000
vn 0.000000 0.000000 -1.000000
vn 0.000000 0.000000 -1.000000
vn 0.000000 0.000000 -1.000000
vn 1.000000 -0.000000 -0.000000
vn 1.000000 -0.000000 -0.000000
vn 1.000000 -0.000000 0.000000
vn 1.000000 -0.000000 0.000000
vn -1.000000 0.000000 -0.000000
vn -1.000000 0.000000 -0.000000
vn -1.000000 0.000000 0.000000
vn -1.000000 0.000000 0.000000
vn 0.000000 0.000000 1.000000
vn -0.000000 0.000000 1.000000
vn -0.000000 0.000000 1.000000
vn 0.000000 0.000000 1.000000
vn -0.000000 0.000000 1.000000
vn -0.000001 0.000000 1.000000
vn -0.000000 0.000000 1.000000
vn -0.000000 0.000000 1.000000
vn 0.000000 0.000000 1.000000
vn 0.000000 0.000000 1.000000
vn 0.000000 0.000000 1.000000
vn 0.000000 0.000000 1.000000
vn 0.000000 0.000000 1.000000
vn 0.000000 0.000000 1.000000
vn 0.000000 0.000000 1.000000
vn 0.000000 0.000000 1.000000
vn 0.000000 0.000000 1.000000
vn 0.000000 0.000000 1.000000
vn 0.000000 0.000000 1.000000
vn 0.000000 0.000000 1.000000
vn 1.000000 -0.000000 -0.000000
vn 1.000000 -0.000000 -0.000000
vn 1.000000 -0.000000 -0.000000
vn 1.000000 -0.000000 -0.000000
vn 0.000000 0.000000 -1.000000
vn 0.000000 0.000000 -1.000000
vn 0.000000 0.000000 -1.000000
vn 0.000000 0.000000 -1.000000
vn -1.000000 -0.000000 -0.000000
vn -1.000000 -0.000000 -0.000000
vn -1.000000 -0.000000 -0.000000
vn -1.000000 -0.000000 -0.000000
vn 0.000000 0.000000 1.000000
vn 0.000000 0.000000 1.000000
vn 0.000000 0.000000 1.000000
vn 0.000000 0.000000 1.000000
vn -0.000000 0.000000 1.000000
vn -0.000000 0.000000 1.000000
vn 0.000000 0.000000 1.000000
vn 0.000000 0.000000 1.000000
vn 1.000000 0.000000 -0.000000
vn 1.000000 0.000000 -0.000000
vn 1.000000 -0.000000 -0.000000
vn 1.000000 -0.000000 -0.000000
vn 0.000000 0.000000 -1.000000
vn 0.000000 0.000000 -1.000000
vn 0.000000 0.000000 -1.000000
vn 0.000000 0.000000 -1.000000
vn -1.000000 0.000000 -0.000000
vn -1.000000 0.000000 -0.000000
vn -1.000000 -0.000000 -0.000000
vn -1.000000 -0.000000 -0.000000
vn 0.000001 0.000000 1.000000
vn 0.000000 0.000000 1.000000
vn -0.000000 0.000000 1.000000
vn -0.000000 0.000000 1.000000
vn 1.000000 0.000000 -0.000000
vn 1.000000 0.000000 -0.000000
vn 0.000000 0.000000 -1.000000
vn 0.000000 0.000000 -1.000000
vn -1.000000 0.000000 -0.000000
vn -1.000000 0.000000 -0.000000
vn 1.000000 0.000000 -0.000000
vn 1.000000 0.000000 -0.000000
vn 0.000000 0.000000 -1.000000
vn 0.000000 0.000000 -1.000000
vn -1.000000 0.000000 -0.000000
vn -1.000000 0.000000 -0.000000
vn 0.000000 0.000000 -1.000000
vn 0.000000 1.000000 0.000000
vn 0.000000 1.000000 0.000000
vn 0.000000 1.000000 0.000000
vn 0.000000 1.000000 0.000000
vn -1.000000 0.000000 0.000000
vn -1.000000 0.000000 0.000000
vn -1.000000 0.000000 0.000000
vn -1.000000 0.000000 0.000000
vn 0.000000 -1.000000 0.000000
vn 0.000000 -1.000000 0.000000
vn 0.000000 -1.000000 0.000000
vn 0.000000 -1.000000 0.000000
vn 1.000000 0.000000 0.000000
vn 1.000000 0.000000 0.000000
vn 1.000000 0.000000 0.000000
vn 1.000000 0.000000 0.000000
vn 0.000000 1.000000 0.000000
vn 0.000000 1.000000 0.000000
vn 0.000000 1.000000 0.000000
vn 0.000000 1.000000 0.000000
vn -1.000000 0.000000 0.000000
vn -1.000000 0.000000 0.000000
vn -1.000000 0.000000 0.000000
vn -1.000000 0.000000 0.000000
vn 0.000000 -1.000000 0.000000
vn 0.000000 -1.000000 0.000000
vn 0.000000 -1.000000 0.000000
vn 0.000000 -1.000000 0.000000
vn 1.000000 0.000000 0.000000
vn 1.000000 0.000000 0.000000
vn 1.000000 0.000000 0.000000
vn 1.000000 0.000000 0.000000
vn 0.000000 1.000000 0.000000
vn 0.000000 1.000000 0.000000
vn 0.000000 1.000000 0.000000
vn 0.000000 1.000000 0.000000
vn -1.000000 0.000000 0.000000
vn -1.000000 0.000000 0.000000
vn -1.000000 0.000000 0.000000
vn -1.000000 0.000000 0.000000
vn 0.000000 -1.000000 0.000000
vn 0.000000 -1.000000 0.000000
vn 0.000000 -1.000000 0.000000
vn 0.000000 -1.000000 0.000000
vn 1.000000 0.000000 0.000000
vn 1.000000 0.000000 0.000000
vn 1.000000 0.000000 0.000000
vn 1.000000 0.000000 0.000000
vn 0.000000 1.000000 0.000000
vn 0.000000 1.000000 0.000000
vn 0.000000 1.000000 0.000000
vn 0.000000 1.000000 0.000000
vn -1.000000 0.000000 0.000000
vn -1.000000 0.000000 0.000000
vn -1.000000 0.000000 0.000000
vn -1.000000 0.000000 0.000000
vn 0.000000 -1.000000 0.000000
vn 0.000000 -1.000000 0.000000
vn 0.000000 -1.000000 0.000000
vn 0.000000 -1.000000 0.000000
vn 1.000000 0.000000 0.000000
vn 1.000000 0.000000 0.000000
vn 1.000000 0.000000 0.000000
vn 1.000000 0.000000 0.000000
vn 0.000000 -1.000000 0.000000
vn 0.000000 -1.000000 0.000000
vn 0.000000 -1.000000 0.000000
vn -0.577359 0.577377 0.577314
vn -0.577359 0.577377 0.577314
vn -0.577359 0.577377 0.577314
vn 0.577359 0.577377 0.577314
vn 0.577359 0.577377 0.577314
vn 0.577359 0.577377 0.577314
vn 0.000000 -1.000000 0.000000
vn 0.000000 -1.000000 0.000000
s off
g BookShelf
usemtl initialShadingGroup
f 8/143/1 9/144/2 10/73/3 11/80/4
f 12/85/5 13/92/6 14/134/7 15/133/8
f 16/97/9 17/104/10 18/142/11 19/141/12
f 20/61/13 21/68/14 22/123/15 23/122/16
s 1
f 24/1/17 25/2/18 34/3/19 35/4/20
s off
f 25/105/21 24/106/22 26/34/23 27/107/24
s 2
f 27/33/25 26/34/26 37/35/27 36/36/28
s 1
f 28/26/29 30/27/30 57/23/31 56/22/32
s off
f 29/110/33 28/111/34 33/112/35 32/113/36
f 30/27/37 29/110/38 39/115/39 38/30/40
s 2
f 31/54/41 33/55/42 63/52/43 62/51/44
s off
f 32/113/45 31/54/46 40/56/47 41/114/48
s 1
f 35/4/20 34/3/19 86/5/49 87/6/50
s 2
f 36/36/28 37/35/27 98/39/51 99/40/52
s 5
f 38/30/53 39/32/54 42/31/55 43/28/56
f 43/28/56 42/31/55 65/29/57 64/24/58
s off
f 44/57/59 45/58/60 55/59/61 54/60/62
f 45/58/63 44/116/64 46/117/65 47/63/66
f 47/63/67 46/64/68 48/65/69 49/66/70
f 49/118/71 48/119/72 54/120/73 55/121/74
f 50/69/75 51/70/76 61/71/77 60/72/78
f 51/70/79 50/69/80 52/76/81 53/75/82
f 53/75/83 52/76/84 58/77/85 59/78/86
s 1
f 56/22/32 57/23/31 69/19/87 68/18/88
s off
f 59/78/89 58/77/90 60/124/91 61/125/92
s 2
f 62/51/44 63/52/43 81/49/93 80/48/94
s 5
f 64/24/58 65/29/57 82/25/95 83/20/96
s 1
f 66/14/97 67/15/98 89/10/99 88/9/100
f 67/15/98 66/14/97 68/18/88 69/19/87
s off
f 70/81/101 71/82/102 73/83/103 72/84/104
f 71/82/105 70/127/106 74/128/107 75/87/108
f 72/129/109 73/130/110 77/131/111 76/132/112
f 75/87/113 74/88/114 76/89/115 77/90/116
s 2
f 78/45/117 79/46/118 101/43/119 100/42/120
f 79/46/118 78/45/117 80/48/94 81/49/93
s 5
f 83/20/96 82/25/95 85/21/121 84/16/122
f 84/16/122 85/21/121 102/17/123 103/11/124
s 1
f 87/6/50 86/5/49 88/9/100 89/10/99
s off
f 90/93/125 91/94/126 93/95/127 92/96/128
f 91/94/129 90/135/130 94/136/131 95/99/132
f 92/137/133 93/138/134 97/139/135 96/140/136
f 95/99/137 94/100/138 96/101/139 97/102/140
s 2
f 99/40/52 98/39/51 100/42/120 101/43/119
s 5
f 103/11/124 102/17/123 104/12/141 105/7/142
f 105/7/142 104/12/141 106/13/143 107/8/144
s off
f 29/110/145 32/113/146 41/114/147 39/115/148
s 6
f 39/145/149 41/146/150 40/147/151 42/148/152
s 7
f 62/51/153 2/53/154 40/56/155 31/54/156
s 8
f 43/28/157 57/23/158 30/27/159 38/30/160
s 9
f 25/162/161 27/163/162 46/164/163 44/165/164
f 60/187/165 63/186/166 33/190/167 50/191/168
f 33/190/167 28/192/169 52/193/170 50/191/168
f 28/192/169 56/189/171 58/188/172 52/193/170
f 72/184/173 68/185/174 66/181/175 70/180/176
f 74/179/177 79/178/178 81/182/179 76/183/180
s 7
f 78/45/181 3/47/182 7/50/183 80/48/184
s 6
f 65/151/185 7/150/186 3/152/187 82/153/188
s 8
f 83/20/189 67/15/190 69/19/191 64/24/192
s 9
f 92/176/193 88/177/194 86/173/195 90/172/196
f 94/171/197 99/170/198 101/174/199 96/175/200
s 7
f 98/39/201 4/41/202 5/44/203 100/42/204
s 6
f 85/155/205 5/154/206 4/156/207 102/157/208
s 8
f 103/11/209 87/6/210 89/10/211 84/16/212
s 9
f 90/172/196 86/173/195 34/169/213 54/168/214
f 54/168/214 48/167/215 94/171/197 90/172/196
f 48/167/215 36/166/216 99/170/198 94/171/197
s 7
f 37/35/217 6/38/218 4/41/202 98/39/201
s 6
f 102/157/208 4/156/207 6/158/219 104/159/220
s 8
f 105/7/221 35/4/222 87/6/210 103/11/209
s 7
f 100/42/204 5/44/203 3/47/182 78/45/181
s 9
f 96/175/200 101/174/199 79/178/178 74/179/177
f 92/176/193 96/175/200 74/179/177 70/180/176
f 70/180/176 66/181/175 88/177/194 92/176/193
s 8
f 84/16/212 89/10/211 67/15/190 83/20/189
s 6
f 82/153/188 3/152/187 5/154/206 85/155/205
s 9
f 54/168/214 34/169/213 25/162/161 44/165/164
f 27/163/162 36/166/216 48/167/215 46/164/163
s 7
f 26/34/223 1/37/224 6/38/218 37/35/217
s 6
f 104/159/220 6/158/219 1/160/225 106/161/226
s 8
f 105/7/221 107/8/227 24/1/228 35/4/222
s 7
f 80/48/184 7/50/183 2/53/154 62/51/153
s 9
f 76/183/180 81/182/179 63/186/166 60/187/165
f 72/184/173 76/183/180 60/187/165 58/188/172
f 58/188/172 56/189/171 68/185/174 72/184/173
s 8
f 64/24/192 69/19/191 57/23/158 43/28/157
s 6
f 42/148/152 2/149/229 7/150/186 65/151/185
s off
f 59/78/230 61/125/231 9/126/232 8/79/233
f 61/71/234 51/70/235 10/73/236 9/74/237
f 51/70/238 53/75/239 11/80/240 10/73/241
f 53/75/242 59/78/243 8/79/244 11/80/245
f 71/82/246 75/87/247 13/92/248 12/85/249
f 75/87/250 77/90/251 14/91/252 13/92/253
f 77/131/254 73/130/255 15/133/256 14/134/257
f 73/83/258 71/82/259 12/85/260 15/86/261
f 91/94/262 95/99/263 17/104/264 16/97/265
f 95/99/266 97/102/267 18/103/268 17/104/269
f 97/139/270 93/138/271 19/141/272 18/142/273
f 93/95/274 91/94/275 16/97/276 19/98/277
f 45/58/278 47/63/279 21/68/280 20/61/281
f 47/63/282 49/66/283 22/67/284 21/68/285
f 49/118/286 55/121/287 23/122/288 22/123/289
f 55/59/290 45/58/291 20/61/292 23/62/293
s 18
f 107/108/294 26/34/295 24/106/296
s off
f 28/111/297 29/110/298 30/27/299
f 31/54/300 32/113/301 33/112/302
s 6
f 42/148/152 40/147/151 2/149/229
s 18
f 107/108/294 106/109/303 1/37/304 26/34/295
